<?xml version="1.0" encoding="utf-8"?>
<!-- Generator: Adobe Illustrator 18.0.0, SVG Export Plug-In . SVG Version: 6.00 Build 0)  -->
<!DOCTYPE svg PUBLIC "-//W3C//DTD SVG 1.1//EN" "http://www.w3.org/Graphics/SVG/1.1/DTD/svg11.dtd" [
	<!ENTITY ns_flows "http://ns.adobe.com/Flows/1.0/">
	<!ENTITY ns_extend "http://ns.adobe.com/Extensibility/1.0/">
	<!ENTITY ns_ai "http://ns.adobe.com/AdobeIllustrator/10.0/">
	<!ENTITY ns_graphs "http://ns.adobe.com/Graphs/1.0/">
	<!ENTITY ns_vars "http://ns.adobe.com/Variables/1.0/">
	<!ENTITY ns_imrep "http://ns.adobe.com/ImageReplacement/1.0/">
	<!ENTITY ns_sfw "http://ns.adobe.com/SaveForWeb/1.0/">
	<!ENTITY ns_custom "http://ns.adobe.com/GenericCustomNamespace/1.0/">
	<!ENTITY ns_adobe_xpath "http://ns.adobe.com/XPath/1.0/">
]>
<svg version="1.1" id="artwork" xmlns:x="&ns_extend;" xmlns:i="&ns_ai;" xmlns:graph="&ns_graphs;"
	 xmlns="http://www.w3.org/2000/svg" xmlns:xlink="http://www.w3.org/1999/xlink" xmlns:a="http://ns.adobe.com/AdobeSVGViewerExtensions/3.0/"
	 x="0px" y="0px" viewBox="0 0 1400 980" enable-background="new 0 0 1400 980" xml:space="preserve">
<metadata><?xpacket begin="﻿" id="W5M0MpCehiHzreSzNTczkc9d"?>
<x:xmpmeta xmlns:x="adobe:ns:meta/" x:xmptk="Adobe XMP Core 5.6-c011 79.156289, 2014/03/31-23:39:12        ">
   <rdf:RDF xmlns:rdf="http://www.w3.org/1999/02/22-rdf-syntax-ns#">
      <rdf:Description rdf:about=""
            xmlns:dc="http://purl.org/dc/elements/1.1/"
            xmlns:xmp="http://ns.adobe.com/xap/1.0/"
            xmlns:xmpGImg="http://ns.adobe.com/xap/1.0/g/img/"
            xmlns:xmpMM="http://ns.adobe.com/xap/1.0/mm/"
            xmlns:stRef="http://ns.adobe.com/xap/1.0/sType/ResourceRef#"
            xmlns:stEvt="http://ns.adobe.com/xap/1.0/sType/ResourceEvent#"
            xmlns:illustrator="http://ns.adobe.com/illustrator/1.0/"
            xmlns:xmpTPg="http://ns.adobe.com/xap/1.0/t/pg/"
            xmlns:stDim="http://ns.adobe.com/xap/1.0/sType/Dimensions#"
            xmlns:xmpG="http://ns.adobe.com/xap/1.0/g/"
            xmlns:pdf="http://ns.adobe.com/pdf/1.3/">
         <dc:format>image/svg+xml</dc:format>
         <dc:title>
            <rdf:Alt>
               <rdf:li xml:lang="x-default">artboard9square</rdf:li>
            </rdf:Alt>
         </dc:title>
         <xmp:MetadataDate>2016-09-21T18:35:03+07:00</xmp:MetadataDate>
         <xmp:ModifyDate>2016-09-21T18:35:03+07:00</xmp:ModifyDate>
         <xmp:CreateDate>2016-09-21T18:35:03+07:00</xmp:CreateDate>
         <xmp:CreatorTool>Adobe Illustrator CC 2014 (Macintosh)</xmp:CreatorTool>
         <xmp:Thumbnails>
            <rdf:Alt>
               <rdf:li rdf:parseType="Resource">
                  <xmpGImg:width>256</xmpGImg:width>
                  <xmpGImg:height>132</xmpGImg:height>
                  <xmpGImg:format>JPEG</xmpGImg:format>
                  <xmpGImg:image>/9j/4AAQSkZJRgABAgEASABIAAD/7QAsUGhvdG9zaG9wIDMuMAA4QklNA+0AAAAAABAASAAAAAEA&#xA;AQBIAAAAAQAB/+4ADkFkb2JlAGTAAAAAAf/bAIQABgQEBAUEBgUFBgkGBQYJCwgGBggLDAoKCwoK&#xA;DBAMDAwMDAwQDA4PEA8ODBMTFBQTExwbGxscHx8fHx8fHx8fHwEHBwcNDA0YEBAYGhURFRofHx8f&#xA;Hx8fHx8fHx8fHx8fHx8fHx8fHx8fHx8fHx8fHx8fHx8fHx8fHx8fHx8fHx8f/8AAEQgAhAEAAwER&#xA;AAIRAQMRAf/EAaIAAAAHAQEBAQEAAAAAAAAAAAQFAwIGAQAHCAkKCwEAAgIDAQEBAQEAAAAAAAAA&#xA;AQACAwQFBgcICQoLEAACAQMDAgQCBgcDBAIGAnMBAgMRBAAFIRIxQVEGE2EicYEUMpGhBxWxQiPB&#xA;UtHhMxZi8CRygvElQzRTkqKyY3PCNUQnk6OzNhdUZHTD0uIIJoMJChgZhJRFRqS0VtNVKBry4/PE&#xA;1OT0ZXWFlaW1xdXl9WZ2hpamtsbW5vY3R1dnd4eXp7fH1+f3OEhYaHiImKi4yNjo+Ck5SVlpeYmZ&#xA;qbnJ2en5KjpKWmp6ipqqusra6voRAAICAQIDBQUEBQYECAMDbQEAAhEDBCESMUEFURNhIgZxgZEy&#xA;obHwFMHR4SNCFVJicvEzJDRDghaSUyWiY7LCB3PSNeJEgxdUkwgJChgZJjZFGidkdFU38qOzwygp&#xA;0+PzhJSktMTU5PRldYWVpbXF1eX1RlZmdoaWprbG1ub2R1dnd4eXp7fH1+f3OEhYaHiImKi4yNjo&#xA;+DlJWWl5iZmpucnZ6fkqOkpaanqKmqq6ytrq+v/aAAwDAQACEQMRAD8A9U4q7FXYq7FXYq7FXYq7&#xA;FXYq7FXYq7FXYq7FXYq7FXYq7FXYq7FXYq7FXYq7FXyb/wA5M/8Aky/+jG3/AFvmLl+prnzeT5Ww&#xA;ej+Uv+UetP8Anp/ydbNXqPrLIJxlCUk1H/eyT6P+IjMqHJqlzQzKymjAg+B2ySHp0P8AdJ/qj9WQ&#xA;LnBfgS9+zoWp2KrIpoZVLROsig0JUggHw2xVfirsVdirsVdiqk93apcx2zzItzKGaKAsA7Kv2iq1&#xA;qQK74qq4q7FXYq7FXYq5mVVLMQFAqSdgAMVU7a5trqBLi2lSeCQVjljYOjDxVlqDiqpirsVdirsV&#xA;dirsVdirsVfKn/OSD2kf5ls8yGVxY2/pxdEO77uQeVPYdfEZiZvqa5c3nK+YIp7MWWo2MM0SkmOe&#xA;ICGdKmvwso40HTiVplHBvYKOLvZJo1tdXGh2kNrOYrQmTnNusxX1X2AFQv8AwX9uFlkBMkiyqsNE&#xA;1C0uRPp943pmRmktZiTGQ5qd9zX3yPixkKkFpWuZo4rmWQryuPh4A0KL8I+Lf7R8NslHkxJorrvU&#xA;476IC6ipcRqFinj6mg6SAnevj2w0plfNk17H5km4raPFBAFAB5VdtupJXb6MGzeRI8m7KPzNDIvr&#xA;GGaHoyljX5hqV+/Bso4n0TrWu6VotkbzUpxDDUIi0LSSO2yxxRqC7u3ZVBOdArHjpeu+bPj1tZNJ&#xA;8vNvHoyOUurlfG8lQ/u0P++Yz/rt+zirx5vy6/NnyPr+q695RtaaXHdSm30+GX6wZrT1T6SvBUvJ&#xA;RCP8sdt8KvWPIn5qab5ilGlanbyaH5njH77SbtWjZjSpaHmFLDvxPxD5b4FZzirsVad0jRndgqKC&#xA;zMxoABuSScVeTeePPXmfWWi0zyPKYJp5F/R9yiq8l6Y5FEsiBtorSIcuUz7O1FWoqcKsQ/NzyZ5y&#xA;s9R8sajYzXmseb7l7l7u/tEcCNohB6McKIOMUScnpXrVicVS2x/Pj8wdG83L/iWF5II0EGo6SYRC&#xA;ycK1liB3D0+I1ND7ClFX0X5f8waT5g0mDVdJuFubK4FUdeoPdWHVWXuDgVMMVdiqy4uILeCS4uJF&#xA;igiUvLK5CqqqKlmJ2AAxVgjfXvzDkKj1LPyIp+2paKfVSD0HRo7X/hn9hhV4z+WfnLz1+X9slzqu&#xA;lX0nk25k4SiWJ1WJyd5IS4oPcfZb574q+mNI1jTNY06DUtMuUu7K4XlFNGag+IPgR0IO4PXAqMxV&#xA;2KuxV2KuxV2KuxV8z/8AOQflPUdT/MD61BLCkZs4FAkZwdi/8qtmLl5uw03Y+bUR44VXLcvNP+Vf&#xA;ax/y0W3/AAUn/VPK6cj/AEN6n+j8/wBic6fe22i2cemXb8ri3rzaMEp8bFxQkKejeGVS7NyZDxCq&#xA;LgZ+z8mKZhKrCJ/xNpfi/wDwOD+SMvfH8fBq/LSVpNMlvCLqOWNY5lV0DcgaFRStFOQ/LSjsejsM&#xA;fs9qMkRIcNHz/Yt/QNz/AL+i+9/+acfBkz/0M6n+j8/2PV4PKWpGCM+pCKqP2m8P9XOfydtYIyIN&#xA;2D3OIdNIbL/8I6l/vyH/AIJv+ach/Lun/pfJfy8npsHljTU1uXW5zJeai1Vt5bhg4toyKGO3QALG&#xA;D+0QOTdyc7pw02xV2KpR5h8p+XvMVusOr2SXBjNYJ90miYbhopVo6EHwOKo7TLJrGwhtGuZrwwrx&#xA;FzcsHmcV25soXkQNq0r41OKonFUp8w+XYtdigtbu4kXTVfne2SUC3Sj7Mcrfa9Ou7KPtdDtiqH8r&#xA;eTtN8vrPNGxutSu6fXNQlCiRwuyRqqgLHFGvwoiAADFU+xVj/m3yJ5c80wIupwFbuHe01GA+ndQM&#xA;DUNHKNxQ70NR7YqgPK/5cWPlq/jvdNvJo2li4arbqEW3u5AKLM0QHGKQHvHQHw3xVl+KuxVJPMfl&#xA;aDzBNZJfXEh0q2YyXOlrQRXTgqYvXP2mRCteHRj16YqnSIkaKiKFRQFVVFAANgABirU0MU0TwzIs&#xA;kUgKyRuAysp2IIOxBxVjXl3yBpflvWLm80OaWy068BNzoqkNa+ttSaMNVozSoIU0P0DFWT4q7FXY&#xA;q7FXYq7FXYq8R/OWRI/NavIwRRaxVZjQfafucx5i5Pb+z8hHTEk0OI/oeeW+r6bcSGOKdS4NKHav&#xA;TpXr1xlhkBZDtcWuwzNRkLYr5gjkk16aONS8jmNURQSSSigAAZsdN/dh5ftb/GJfD7g7U/K+v6XY&#xA;wX2oWUltbXDNHG0goeaEgqy/aU7GnIb9suEgeTrBMHkzLRra4uLKzjt4nlk+rxngiljQRipoM0mp&#xA;yRhImRAF9XuNHOMcECTQoJlqWiappvE3kDRK+ytUFSaVpUE5iabXYc9+HISpuw6rHl+k29Su9Z0r&#xA;S7KGXUbuK0jdVVGmcJyNBsK9c86Ojy580xjiZESPL3vF5D6iu0zW9J1RC+n3SXCgBjxrXi3RqGho&#xA;fHKtVoc2A1kiYsAXoeewundirsVdirsVdirsVdirsVdirsVdirsVdirsVdirsVdirsVdirsVdirs&#xA;Vdirwj88NNt77zVGk5bgttGQqmgJ5Pucq8Uwls9h2NpI5tNUroSP6HnX+FdJ8JP+CyX5ubsf5Gwe&#xA;fzS867feX/Mk91YCN7lFRI5p0ErL+7WpXl0Y+PXMzCOLGL/G7z3auMePIe7/AHIRWqfmj5q1Swms&#xA;L9ree1nHGSNoV+gg9iOxGWDEA60YgGT+VtfvtJ023NosYeWCHk7ryagQbV8M5ztLs/HqZVkugT1e&#xA;zw6SGbBDivaKZX/nDVr+1e1uhC8TjccNwexBrsRmHpuxsGGYnDiEh5t2Hs7HjlxRu/eyTVPy08va&#xA;5Ot9qUt3PMyjiDMeKLT7KLSiqM5yPtHqNMZY8YgIiR/h578zvzeSyR9Ra0z8q/LWl3kd5YS3lvcR&#xA;GqOk5HXqCKUIPcHK9R7T6nNAwyRxyif6P7WHC9mz0l1DsVdirsVdirsVdirsVdirsVdirsVdirsV&#xA;dirsVdirsVdirsVdirsVdirsVYv5k/LvRPMOoi/vZ7mOYRrFxhaNVopJGzI5r8XjkJYwS7XRdsZd&#xA;PDgiIkXe9/rSn/lS/lf/AJar7/kZD/1SyPhBy/8ARJqP5sPkf+KSq+/5x08k3l09zLe6kHkpULLA&#xA;BsAveA+GZOPIYig6zUa+eWZnICz+O9Q/6Fo8if8ALfqn/I23/wCqGS8ctP5iScwfkl5VhgjhW7vi&#xA;sSKikyQ1oooK/uvbMaWME27XD2/nxwEQIUPI/rX/APKl/K//AC1X3/IyH/qlkfCDZ/ok1H82HyP/&#xA;ABTKU8t2KIqB5aKABUr2/wBjnPZPZXTSkZGU9zfOP/EupOrkTezf+HrL+eT71/5pyP8AoS0387J8&#xA;4/8AEo/Ny8k0zqHGdirsVdirsVdirsVdirsVdirsVdirsVdirsVdirsVdirsVdirsVdirsVdirsV&#xA;dirsVdirsVdirsVdirsVdirsVdirsVdirsVdirsVdirsVdirsVdirsVdirsVdirsVdirsVdirsVd&#xA;irsVdirsVdirsVdirsVdirsVYn5m/NPyP5cSM3+pRvJPDJPbxW/75pFjJXYpVRydSq1I3B8DirD/&#xA;ACd/zkZ5V1VZ015RotwswW3qWljeJ24qS4X4Stfjrt38aKvV7e8tLn1DbTxziJjHL6bK/FwASrcS&#xA;aHfpiqrirsVdirTuiIzuwVFBLMTQADqScVefeafzu8laR5fn1PT7yPVbkTPaW1pCSvqTxhS/xEf3&#xA;ahwS4qD2riqd/l95+0jzpoaajYsI7lKLfWJarwSHsdhVT+y1N/nUYqyfFXYq7FXYqw/zT+avk7y/&#xA;Y6nNLepc3mmOsEthCaym4kUskXSn7J5H9mhrvtirGvLX/OQ3lTU4tNXUIZNPuryVre6NQ8Fu+3pl&#xA;5DxbhLXZuO1DXxxV6qCCKjpirsVdirsVdirsVdirsVdirsVdirsVdirsVdirsVebfnFc/mLdWQ0L&#xA;ynpM01vdpXUNSjkiQ+mSQYI+ThlLAfE1Oh2xV4G/5LfmmxFdBmoNlHqwkAVrQVkwqt/5Un+aP/Vg&#xA;m/5GQf8AVTFWY/lx5d/OfyVrIu7fy/NcWU5CajaNNDSWMfZIrJ8Lpvxb6OmKvpSNy8auUMZYAlGp&#xA;yWo6GhIqPY4FXYq7FXiX5v8A/K4PMk9xomh6JPbeXkYxyTJLCsl4BtVvjBER7J3/AGvAKvKrj8nP&#xA;zVnZS2gSKqKEjRZIAqqN6Aep4mp8Tud8Kpx5M8i/nV5R1yHV9L0OUSJ8M8DSQ+nNET8Ubj1Oh/A7&#xA;4q+otNubi60+3ubm2eyuJo1ea0kKs0TkVZCykqeJ2qMCojFXYqwv80tR89QaGLPydpsl3qN6GR71&#xA;HjUWyClWAdlJdq/D4dfDFXzndfk/+atwRXQJgq1PH1YTVm+27Eybs5FWP8ABhVRH5K/mmAQNBmAY&#xA;UI9WDcVr/vzFXu/5LP8AmRp9idA82aVLFZ2kddP1GSSN2Cggeg/F2Y0r8B7AU8MCvT8VdirsVdir&#xA;sVdirsVdirsVdirsVdirsVdirsVdirsVdirsVdirsVdirsVdirsVdirsVdirsVdirsVdirsVdirs&#xA;VdirsVdirsVdirsVdirsVdirsVdirsVdirsVdirsVdirsVdirsVdirsVdirsVdirsVdirsVdirsV&#xA;dirsVdirsVdirsVdirsVdirsVdirsVdirsVdirsVdirsVdirsVdirsVdirsVdirsVdirsVdirsVd&#xA;irsVdirsVdirsVdirsVdirsVdirsVdirsVdirsVdirsVdirsVdirsVdirsVdirsVdirsVdirsVdi&#xA;rsVdirsVdirsVdirsVdirsVdirsVdirsVdirsVdirsVdirsVWxyxSgmN1cKeJKkGhHbbFV2KuxV2&#xA;KuxV2KuxV2KuxV2KuxV2KuxVC22raVdXMtrbXsE9zD/fQRyo8ib0+JVJI+nFUVirsVdirsVdirsV&#xA;dirsVdirsVdirsVdirsVdirsVeUfmd+fOjeWvW0zQ+Gp64Kq7A1t7dv8th9th/Ip+ZHTFXgN9+Z/&#xA;n68F4s2vXjpfgrcx+qyx8SalY0B4xqf8kDbbphVMvK/n/S9N0RNLe3utKu1SRW1/SJTHcyVfmiTx&#xA;BoFlQfZ/vAwHRu2KvRfK3/OQGlaaIor2a5ubQsEnhnaS4mi2H72C4f45UJ6xzfEvZ26Yq9x0bW9J&#xA;1rT4tR0q6jvLKYVSaM1HuCOqkdwdxgVG4q7FXYq7FXYq7FXYq7FXmP5mfnjoXlQS6dpnDU9fFVMK&#xA;msMB/wCLmX9ofyLv40xV86an+YvnW/1GbUJtau/rM6sjmOV4o1RxQokaFVVaHw9+uFUX5L8/Q+X7&#xA;f6pc6alzGbj6ymowsYNQgYqFP1ecVoNqlWBVuhG+KvbPy+/5yC0TVLhNK1+X6pctRbbUpVWKOXtS&#xA;YKSkT+4PA/5P2cCvYgQQCDUHcEYq7FXYq7FXYq7FXYq7FXYq7FXYq7FXYq7FXYqwA/8AKg6mv+Fa&#xA;96/o7FXf8gC/79X/ALl2Ku/5AF/36v8A3LsVd/yAL/v1f+5dirJvK3+Dfqcv+Ff0d9S9T9/+i/Q9&#xA;L1eI+36Hw8uNOu9MVTnFXYq7FXYq7FXYq7FWn4cG5/YoeVfDviryJv8AoWrkeX6L5V+KvqVr74Va&#xA;/wCsaP8AtVf8lMVd/wBY0f8Aaq/5KYq7/rGj/tVf8lMVeoaD+iP0NZ/obh+ivSX6l6deHpU+HjXe&#xA;lMCo/FXYq7FXYq7FXYq7FXYq7FXYq7FXYq7FXYq//9k=</xmpGImg:image>
               </rdf:li>
            </rdf:Alt>
         </xmp:Thumbnails>
         <xmpMM:InstanceID>xmp.iid:4fe65c0d-046f-4d57-95c6-a4523b82141d</xmpMM:InstanceID>
         <xmpMM:DocumentID>xmp.did:4fe65c0d-046f-4d57-95c6-a4523b82141d</xmpMM:DocumentID>
         <xmpMM:OriginalDocumentID>uuid:5D20892493BFDB11914A8590D31508C8</xmpMM:OriginalDocumentID>
         <xmpMM:RenditionClass>proof:pdf</xmpMM:RenditionClass>
         <xmpMM:DerivedFrom rdf:parseType="Resource">
            <stRef:instanceID>uuid:274923f3-1334-467d-9f29-5f48dae5abfb</stRef:instanceID>
            <stRef:documentID>xmp.did:035cf1d2-062d-2e4f-ac85-84f272c7bda9</stRef:documentID>
            <stRef:originalDocumentID>uuid:5D20892493BFDB11914A8590D31508C8</stRef:originalDocumentID>
            <stRef:renditionClass>proof:pdf</stRef:renditionClass>
         </xmpMM:DerivedFrom>
         <xmpMM:History>
            <rdf:Seq>
               <rdf:li rdf:parseType="Resource">
                  <stEvt:action>saved</stEvt:action>
                  <stEvt:instanceID>xmp.iid:474e64be-3448-ba43-be42-78c97279a7b7</stEvt:instanceID>
                  <stEvt:when>2016-06-13T22:30:12+07:00</stEvt:when>
                  <stEvt:softwareAgent>Adobe Illustrator CC 2015 (Windows)</stEvt:softwareAgent>
                  <stEvt:changed>/</stEvt:changed>
               </rdf:li>
               <rdf:li rdf:parseType="Resource">
                  <stEvt:action>saved</stEvt:action>
                  <stEvt:instanceID>xmp.iid:4fe65c0d-046f-4d57-95c6-a4523b82141d</stEvt:instanceID>
                  <stEvt:when>2016-09-21T18:35:03+07:00</stEvt:when>
                  <stEvt:softwareAgent>Adobe Illustrator CC 2014 (Macintosh)</stEvt:softwareAgent>
                  <stEvt:changed>/</stEvt:changed>
               </rdf:li>
            </rdf:Seq>
         </xmpMM:History>
         <illustrator:StartupProfile>Print</illustrator:StartupProfile>
         <xmpTPg:HasVisibleOverprint>False</xmpTPg:HasVisibleOverprint>
         <xmpTPg:HasVisibleTransparency>False</xmpTPg:HasVisibleTransparency>
         <xmpTPg:NPages>1</xmpTPg:NPages>
         <xmpTPg:MaxPageSize rdf:parseType="Resource">
            <stDim:w>1400.000000</stDim:w>
            <stDim:h>980.000000</stDim:h>
            <stDim:unit>Pixels</stDim:unit>
         </xmpTPg:MaxPageSize>
         <xmpTPg:PlateNames>
            <rdf:Seq>
               <rdf:li>Cyan</rdf:li>
               <rdf:li>Magenta</rdf:li>
               <rdf:li>Yellow</rdf:li>
               <rdf:li>Black</rdf:li>
            </rdf:Seq>
         </xmpTPg:PlateNames>
         <xmpTPg:SwatchGroups>
            <rdf:Seq>
               <rdf:li rdf:parseType="Resource">
                  <xmpG:groupName>Default Swatch Group</xmpG:groupName>
                  <xmpG:groupType>0</xmpG:groupType>
                  <xmpG:Colorants>
                     <rdf:Seq>
                        <rdf:li rdf:parseType="Resource">
                           <xmpG:swatchName>White</xmpG:swatchName>
                           <xmpG:mode>CMYK</xmpG:mode>
                           <xmpG:type>PROCESS</xmpG:type>
                           <xmpG:cyan>0.000000</xmpG:cyan>
                           <xmpG:magenta>0.000000</xmpG:magenta>
                           <xmpG:yellow>0.000000</xmpG:yellow>
                           <xmpG:black>0.000000</xmpG:black>
                        </rdf:li>
                        <rdf:li rdf:parseType="Resource">
                           <xmpG:swatchName>Black</xmpG:swatchName>
                           <xmpG:mode>CMYK</xmpG:mode>
                           <xmpG:type>PROCESS</xmpG:type>
                           <xmpG:cyan>0.000000</xmpG:cyan>
                           <xmpG:magenta>0.000000</xmpG:magenta>
                           <xmpG:yellow>0.000000</xmpG:yellow>
                           <xmpG:black>100.000000</xmpG:black>
                        </rdf:li>
                     </rdf:Seq>
                  </xmpG:Colorants>
               </rdf:li>
               <rdf:li rdf:parseType="Resource">
                  <xmpG:groupName>Grays</xmpG:groupName>
                  <xmpG:groupType>1</xmpG:groupType>
                  <xmpG:Colorants>
                     <rdf:Seq>
                        <rdf:li rdf:parseType="Resource">
                           <xmpG:swatchName>C=0 M=0 Y=0 K=100</xmpG:swatchName>
                           <xmpG:mode>CMYK</xmpG:mode>
                           <xmpG:type>PROCESS</xmpG:type>
                           <xmpG:cyan>0.000000</xmpG:cyan>
                           <xmpG:magenta>0.000000</xmpG:magenta>
                           <xmpG:yellow>0.000000</xmpG:yellow>
                           <xmpG:black>100.000000</xmpG:black>
                        </rdf:li>
                        <rdf:li rdf:parseType="Resource">
                           <xmpG:swatchName>C=0 M=0 Y=0 K=90</xmpG:swatchName>
                           <xmpG:mode>CMYK</xmpG:mode>
                           <xmpG:type>PROCESS</xmpG:type>
                           <xmpG:cyan>0.000000</xmpG:cyan>
                           <xmpG:magenta>0.000000</xmpG:magenta>
                           <xmpG:yellow>0.000000</xmpG:yellow>
                           <xmpG:black>89.999400</xmpG:black>
                        </rdf:li>
                     </rdf:Seq>
                  </xmpG:Colorants>
               </rdf:li>
            </rdf:Seq>
         </xmpTPg:SwatchGroups>
         <pdf:Producer>Adobe PDF library 15.00</pdf:Producer>
      </rdf:Description>
   </rdf:RDF>
</x:xmpmeta>
                                                                                                    
                                                                                                    
                                                                                                    
                                                                                                    
                                                                                                    
                                                                                                    
                                                                                                    
                                                                                                    
                                                                                                    
                                                                                                    
                                                                                                    
                                                                                                    
                                                                                                    
                                                                                                    
                                                                                                    
                                                                                                    
                                                                                                    
                                                                                                    
                                                                                                    
                                                                                                    
                           
<?xpacket end="w"?>
	</metadata>
<rect fill="#2E401F" width="350" height="490"/>
<rect x="700" fill="#577334" width="350" height="490"/>
<rect x="350" fill="#788D39" width="350" height="490"/>
<rect x="1050" fill="#A5A769" width="350" height="490"/>
<rect y="490" fill="#F0506E" width="350" height="490"/>
<rect x="350" y="490" fill="#623965" width="350" height="490"/>
<rect x="700" y="490" fill="#F0506E" width="350" height="490"/>
<rect x="1050" y="490" fill="#FAE800" width="350" height="490"/>
<path id="XMLID_44_" fill="#A5A769" d="M327,290.6l-124.8-88.9c0,0,0,0,0,0l-3.2-2.3c-14.4-10.2-33.7-10.2-48.1,0L23,290.6
	c-1.9,1.3-2.3,3.9-1,5.8c1.3,1.9,3.9,2.3,5.8,1l128-91.1c0,0,0.1-0.1,0.1-0.1c6.3-4.4,14.9,0.2,14.9,7.8l0,29c0,0.7,0.1,1.3,0.4,1.9
	c0.8,1.6,2.5,2.5,4.2,2.3l29.3-3.2c3.5-0.4,6.9,0.7,9.5,3l13,11.4c0.8,0.7,1.9,1.1,3,1l11.6-0.7c2.9-0.2,5.9,0.4,8.5,1.8l72.3,37.2
	c0,0,0,0,0,0c0.6,0.3,1.3,0.5,1.9,0.5c1.3,0,2.6-0.6,3.4-1.8C329.3,294.6,328.9,292,327,290.6z"/>
<path id="XMLID_66_" fill="#A5A769" d="M1004.1,288L1004.1,288L879,172.6c-2.2-2.1-5.7-2.1-8,0L745.9,288c-1.2,1.1-1.8,2.5-1.9,4.1
	c-0.1,1.6,0.5,3.1,1.6,4.2c1.1,1.2,2.5,1.8,4.1,1.9c0.1,0,0.2,0,0.2,0c1.5,0,2.9-0.5,4-1.6l111.5-102.8c0.7-0.6,1.6-0.8,2.4-0.4
	c0.8,0.4,1.4,1.1,1.4,2.1V251c0,1.6,0.6,3.1,1.6,4.1c1.7,1.8,4.3,2.4,6.6,1.4l25.6-11c3.6-1.6,7.8-1.2,11.2,0.8l82.9,50.9
	c0.9,0.6,2,0.9,3.1,0.9c1.6,0,3.2-0.7,4.3-1.9c1.1-1.2,1.6-2.7,1.6-4.2C1006,290.5,1005.3,289.1,1004.1,288z"/>
<path id="XMLID_118_" fill="#D8D6D8" d="M556.6,684.1c-2.1-2.3-5.8-2.3-7.9,0l-67.4,71.9c-1.3,1.4-3.4,1.4-4.8,0.2
	c-1.4-1.3-1.4-3.4-0.2-4.8l26.8-28.6c2.1-2.3,1.9-5.8-0.4-7.8l-7.3-6.2c-2-1.7-5-1.7-7,0l-88.6,75.2c-2.6,2.2-1,6.4,2.3,6.4h42.3
	h147h56.4c3.2,0,4.8-3.8,2.6-6.1L556.6,684.1z"/>
<path id="XMLID_39_" fill="#FAE800" d="M1005.5,784.2l-82.4-89.6c-2.1-2.3-5.8-2.3-8,0l-5.5,5.9c-1.9,2.1-1.9,5.3,0,7.3l20.6,22.4
	c1.3,1.4,1.2,3.5-0.2,4.8c-1.4,1.3-3.5,1.2-4.8-0.2l-46.6-50.6c-2.1-2.3-5.8-2.3-8,0l-73.5,79.9c-0.7,0.7-1.6,1.1-2.5,1.1
	c-0.8,0-1.6-0.3-2.3-0.9c-1.4-1.3-1.5-3.4-0.2-4.8l32.9-35.8c1.9-2.1,1.9-5.3,0-7.3l-5.1-5.6c-2.1-2.3-5.8-2.3-8,0l-67.5,73.4
	c-2.1,2.3-0.5,6.1,2.7,6.1h21.4H827h66h87.8h22C1006,790.3,1007.6,786.5,1005.5,784.2z"/>
<path id="XMLID_32_" fill="#623965" d="M261.4,719.6l-6.2,3.4c-2.1,1.1-2.5,3.9-0.9,5.6l32.6,35.7c0.8,0.9,0.8,2.3-0.1,3.2
	c-0.4,0.4-1,0.6-1.5,0.6c-0.6,0-1.2-0.2-1.7-0.7l-57.3-62.7c-1.7-1.8-4.4-2.3-6.6-1.1l-3.6,1.9c-2.1,1.1-2.6,4-0.8,5.7l25.3,25.2
	c0.9,0.9,1,2.5,0,3.3c-0.4,0.4-1,0.6-1.5,0.6c-0.6,0-1.2-0.2-1.6-0.7l-58.5-58.3c-2.1-2.1-5.5-2.1-7.7,0l-58.5,58.3
	c-0.9,0.9-2.3,0.9-3.2,0c-0.9-0.9-0.9-2.3,0-3.2l25.2-25.1c1.8-1.8,1.3-4.7-1-5.8l-3.7-1.8c-2.2-1-4.7-0.5-6.4,1.2l-57.1,62.4
	c-0.4,0.5-1.1,0.7-1.7,0.7c-0.5,0-1.1-0.2-1.5-0.6c-0.9-0.8-1-2.3-0.1-3.2l32.6-35.7c1.6-1.7,1.1-4.5-0.9-5.6l-6.2-3.4
	c-2.2-1.2-4.8-0.7-6.5,1l-59.9,63.6c-2.2,2.3-0.5,6.1,2.6,6.1h300.3c3.2,0,4.8-3.8,2.6-6.1l-59.9-63.6
	C266.2,718.8,263.6,718.4,261.4,719.6z M175,766.5l-1.3-0.7h2.6L175,766.5z"/>
<path id="XMLID_92_" fill="#2E401F" d="M676.4,290.8L586.5,208c-1.6-1.5-4.1-1.5-5.7,0l-17.1,15.7l-39-35.9c-1.9-1.7-4.9-1.7-6.8,0
	l-35.1,32.4l-13.4-12.4c-1.6-1.5-4.1-1.5-5.8,0l-90.1,83.1c-0.8,0.8-1.3,1.8-1.4,3c0,1.1,0.4,2.2,1.1,3.1c0.8,0.8,1.8,1.3,3,1.4
	c1.1,0,2.2-0.4,3.1-1.1l80.3-74c0.5-0.4,1.1-0.6,1.7-0.3c0.6,0.3,1,0.8,1,1.5v14.8l-54.7,50.5c-1,0.9-1.5,2.1-1.6,3.5
	c-0.1,1.3,0.4,2.6,1.3,3.6c1.9,2,5,2.1,7,0.3l98.4-90.7c0.7-0.6,1.5-0.8,2.4-0.4c0.8,0.4,1.3,1.1,1.3,2v48.9c0,1.3,0.5,2.6,1.3,3.5
	c1.4,1.5,3.7,2,5.6,1.2l22.6-9.7c3.3-1.4,7-1.1,10,0.7l73.1,44.9c0.8,0.5,1.7,0.7,2.6,0.7c1.4,0,2.7-0.6,3.7-1.6
	c0.9-1,1.4-2.2,1.3-3.6c-0.1-1.3-0.6-2.6-1.6-3.5l-31.6-29.1l0.2-0.1c2.6-1.1,5.6-0.9,8,0.6l59.6,36.6c0.7,0.4,1.4,0.6,2.2,0.6
	c1.2,0,2.3-0.5,3.1-1.4c0.8-0.8,1.2-1.9,1.1-3C677.7,292.6,677.2,291.6,676.4,290.8z M579.4,224.4v13.8l-9.4-8.7l6.8-6.2
	c0.5-0.4,1.1-0.6,1.7-0.3C579.1,223.2,579.4,223.8,579.4,224.4z"/>
<path id="XMLID_58_" fill="#623965" d="M1389.4,783.4l-117-83.7c-14.7-10.5-34.3-10.5-49,0l-75.2,53.8c-0.4,0.3-0.8,0.4-1.2,0.4
	c-0.7,0-1.3-0.3-1.7-0.9c-0.7-0.9-0.4-2.2,0.5-2.9l50.5-36.1c1.2-0.9,1.8-2.3,1.6-3.8c-0.2-1.5-1.1-2.7-2.5-3.2
	c-11.5-4.3-24.3-2.7-34.3,4.5l-100.4,71.9c-1.5,1.1-2,3.1-1.2,4.7c0.6,1.3,2,2.1,3.5,2.1h324.1c1.5,0,2.9-0.8,3.5-2.1
	C1391.4,786.5,1390.9,784.5,1389.4,783.4z M1304.3,743.8l-12.1-0.1c-1.9,0-3.8-0.8-5.1-2.2l-7.8-8.2c-2.2-2.3-5.5-3.5-8.6-3.1
	l-16.6,2c-0.6,0.1-1.2-0.1-1.7-0.5c-0.5-0.4-0.8-1-0.8-1.6c-0.8-15.2-4.6-25.2-11.2-29.8c9.6-2.2,19.6-0.2,27.6,5.6l81.3,58.2
	l-39.3-18.9h0C1308.2,744.3,1306.2,743.8,1304.3,743.8z"/>
<path id="XMLID_130_" fill="#577334" d="M1389.1,298.2c3.2,0,4.6-4.1,1.9-6l-85.8-61.4c-12.1-8.7-28.4-8.8-40.6-0.5l-14.1-10.1
	c-14.1-10.1-32.9-10.1-47,0l-72.2,51.6c-0.3,0.2-0.7,0.4-1.1,0.4c-0.6,0-1.2-0.3-1.6-0.8c-0.6-0.9-0.4-2.1,0.5-2.8l48.4-34.7
	c1.1-0.8,1.7-2.1,1.6-3.5c-0.2-1.5-1.2-2.7-2.6-3.2c-11-4.1-23.2-2.5-32.7,4.4l-84.7,60.6c-2.6,1.9-1.3,6,1.9,6H1389.1z M1301.5,236
	l68.6,49l-33.1-16h0c-1.5-0.7-3.2-1.1-4.8-1.1l-10.2-0.1c-1.6,0-3.2-0.7-4.3-1.9l-6.6-6.9c-1.9-1.9-4.6-2.9-7.3-2.6l-2.2,0.3
	l-15.2-10.9c-1.5-7.1-4.2-12-8.1-14.6C1286.3,229.4,1294.7,231.1,1301.5,236z M1246.2,226.1l78,55.8l-37.7-18.2h0
	c-1.7-0.8-3.6-1.3-5.5-1.3l-11.7-0.1c-1.8,0-3.6-0.8-4.9-2.1l-7.5-7.9c-2.1-2.2-5.2-3.3-8.3-3l-15.9,1.9c-0.6,0.1-1.2-0.1-1.6-0.5
	c-0.5-0.4-0.7-0.9-0.8-1.5c-0.8-14.6-4.4-24.2-10.7-28.6C1228.9,218.7,1238.5,220.6,1246.2,226.1z"/>
</svg>
