<svg xmlns="http://www.w3.org/2000/svg" width="420" height="420" viewBox="0 0 420 420">
  <path id="noun-dashboard-3845106" d="M262.5,70h-70A52.494,52.494,0,0,0,140,122.5v315A52.494,52.494,0,0,0,192.5,490h70A52.494,52.494,0,0,0,315,437.5v-315A52.494,52.494,0,0,0,262.5,70ZM280,437.5A17.5,17.5,0,0,1,262.5,455h-70A17.5,17.5,0,0,1,175,437.5v-315A17.5,17.5,0,0,1,192.5,105h70A17.5,17.5,0,0,1,280,122.5Zm227.5-92.75h-105a52.494,52.494,0,0,0-52.5,52.5V437.5A52.494,52.494,0,0,0,402.5,490h105A52.494,52.494,0,0,0,560,437.5V397.25a52.494,52.494,0,0,0-52.5-52.5ZM525,437.5A17.5,17.5,0,0,1,507.5,455h-105A17.5,17.5,0,0,1,385,437.5V397.25a17.5,17.5,0,0,1,17.5-17.5h105a17.5,17.5,0,0,1,17.5,17.5ZM507.5,70h-105A52.494,52.494,0,0,0,350,122.5V257.25a52.494,52.494,0,0,0,52.5,52.5h105a52.494,52.494,0,0,0,52.5-52.5V122.5A52.494,52.494,0,0,0,507.5,70ZM525,257.25a17.5,17.5,0,0,1-17.5,17.5h-105a17.5,17.5,0,0,1-17.5-17.5V122.5A17.5,17.5,0,0,1,402.5,105h105A17.5,17.5,0,0,1,525,122.5Z" transform="translate(-140 -70)"/>
</svg>
