<svg xmlns="http://www.w3.org/2000/svg" width="347.208" height="358.4" viewBox="0 0 347.208 358.4">
  <g id="noun-notification-4625061" transform="translate(-176.396 -100.8)">
    <path id="Path_11843" data-name="Path 11843" d="M243.6,173.6H322a22.4,22.4,0,0,0,0-44.8H243.6A67.205,67.205,0,0,0,176.4,196V392a67.205,67.205,0,0,0,67.2,67.2h196A67.205,67.205,0,0,0,506.8,392V302.4a22.4,22.4,0,0,0-44.8,0V392a22.4,22.4,0,0,1-22.4,22.4h-196A22.4,22.4,0,0,1,221.2,392V196a22.4,22.4,0,0,1,22.4-22.4Z"/>
    <path id="Path_11844" data-name="Path 11844" d="M456.4,100.8a67.205,67.205,0,1,0,47.52,19.684A67.187,67.187,0,0,0,456.4,100.8Zm0,89.6v0a22.4,22.4,0,1,1,15.84-6.559A22.4,22.4,0,0,1,456.4,190.4Z"/>
  </g>
</svg>
