<svg xmlns="http://www.w3.org/2000/svg" width="560" height="560" viewBox="0 0 560 560">
  <path id="noun-profile-1081050" d="M473.2,280c28-30.8,44.8-70,44.8-112C518,75.6,442.4,0,350,0S182,75.6,182,168c0,42,16.8,81.2,44.8,112C131.6,327.6,70,425.6,70,532c0,16.8,11.2,28,28,28H602c16.8,0,28-11.2,28-28,0-106.4-61.6-204.4-156.8-252ZM350,56c61.6,0,112,50.4,112,112S411.6,280,350,280c-58.8,0-112-47.6-112-112C238,106.4,288.4,56,350,56ZM128.8,504c11.2-84,70-156.8,151.2-184.8,22.4,11.2,44.8,16.8,70,16.8s47.6-5.6,70-16.8c81.2,28,140,98,151.2,184.8Z" transform="translate(-70.002)"/>
</svg>
